HIERARCHY
ROOT hip
{
	OFFSET 0.000000 0.000000 0.000000
	CHANNELS 6 Xposition Yposition Zposition Xrotation Zrotation Yrotation 
	JOINT abdomen
	{
		OFFSET 0.000000 3.422050 0.000000
		CHANNELS 3 Xrotation Zrotation Yrotation 
		JOINT chest
		{
			OFFSET 0.000000 8.486693 -0.684411
			CHANNELS 3 Xrotation Zrotation Yrotation 
			JOINT neck
			{
				OFFSET 0.000000 10.266162 -0.273764
				CHANNELS 3 Xrotation Zrotation Yrotation 
				JOINT head
				{
					OFFSET 0.000000 3.148285 0.000000
					CHANNELS 3 Xrotation Zrotation Yrotation 
					End Site
					{
						OFFSET 0.000000 3.148289 0.000000
					}
				}
			}
			JOINT lCollar
			{
				OFFSET 3.422053 6.707223 -0.821293
				CHANNELS 3 Yrotation Zrotation Xrotation 
				JOINT lShldr
				{
					OFFSET 3.285171 0.000000 0.000000
					CHANNELS 3 Zrotation Yrotation Xrotation 
					JOINT lForeArm
					{
						OFFSET 10.129278 0.000000 0.000000
						CHANNELS 3 Yrotation Zrotation Xrotation 
						JOINT lHand
						{
							OFFSET 8.486692 0.000000 0.000000
							CHANNELS 3 Zrotation Yrotation Xrotation 
							End Site
							{
								OFFSET 4.106464 0.000000 0.000000
							}
						}
					}
				}
			}
			JOINT rCollar
			{
				OFFSET -3.558935 6.707223 -0.821293
				CHANNELS 3 Yrotation Zrotation Xrotation 
				JOINT rShldr
				{
					OFFSET -3.148289 0.000000 0.000000
					CHANNELS 3 Zrotation Yrotation Xrotation 
					JOINT rForeArm
					{
						OFFSET -10.266159 0.000000 0.000000
						CHANNELS 3 Yrotation Zrotation Xrotation 
						JOINT rHand
						{
							OFFSET -8.349810 0.000000 0.000000
							CHANNELS 3 Zrotation Yrotation Xrotation 
							End Site
							{
								OFFSET -4.106464 0.000000 0.000000
							}
						}
					}
				}
			}
		}
	}
	JOINT lThigh
	{
		OFFSET 5.338403 -1.642589 1.368821
		CHANNELS 3 Xrotation Zrotation Yrotation 
		JOINT lShin
		{
			OFFSET -2.053232 -20.121670 0.000000
			CHANNELS 3 Xrotation Zrotation Yrotation 
			JOINT lFoot
			{
				OFFSET 0.000000 -19.300380 -1.231939
				CHANNELS 3 Xrotation Yrotation Zrotation 
				End Site
				{
					OFFSET 0.000000 -2.463878 4.653993
				}
			}
		}
	}
	JOINT rThigh
	{
		OFFSET -5.338403 -1.642589 1.368821
		CHANNELS 3 Xrotation Zrotation Yrotation 
		JOINT rShin
		{
			OFFSET 2.053232 -20.121670 0.000000
			CHANNELS 3 Xrotation Zrotation Yrotation 
			JOINT rFoot
			{
				OFFSET 0.000000 -19.300380 -1.231939
				CHANNELS 3 Xrotation Yrotation Zrotation 
				End Site
				{
					OFFSET 0.000000 -2.463878 4.653993
				}
			}
		}
	}
}
MOTION
Frames: 10
Frame Time: 0.033325
0.000000 43.528500 0.000000 0.000000 0.000000 0.000000 0.000000 0.000000 0.000000 0.000000 0.000000 0.000000 0.000000 0.000000 0.000000 0.000000 0.000000 0.000000 0.000000 0.000000 0.000000 0.000000 0.000000 0.000000 0.000000 0.000000 0.000000 0.000000 0.000000 0.000000 0.000000 0.000000 0.000000 0.000000 0.000000 0.000000 0.000000 0.000000 0.000000 0.000000 0.000000 0.000000 0.000000 0.000000 0.000000 0.000000 0.000000 0.000000 0.000000 0.000000 0.000000 0.000000 0.000000 0.000000 0.000000 0.000000 0.000000 0.000000 0.000000 0.000000 
19.995884 18.468296 11.086800 90.000671 0.013666 -132.006592 12.060170 20.619831 8.209951 10.639852 13.303134 15.774822 -0.508835 0.000000 0.000000 -0.361948 0.000000 0.000000 38.638729 8.885790 -5.857403 -15.516949 -27.017391 36.422359 -77.410110 43.992023 30.827827 -10.231864 1.217619 8.570428 21.975302 28.945530 -3.964781 58.998764 -17.002073 -56.002247 1.237373 -0.284450 -15.302978 30.729017 -3.836412 -3.001370 -124.523354 34.611496 -15.539671 68.812057 13.705503 -0.774125 16.473324 4.341975 -21.829693 -140.001328 21.868294 -2.681422 79.807800 41.910477 -2.418868 16.915192 10.379280 1.099124 
19.995884 18.468296 11.222969 90.000671 0.013666 -132.006592 12.060118 20.897507 8.209969 10.910277 13.913096 15.748957 -1.006857 0.000000 0.000000 -0.718821 0.000000 0.000000 38.119034 7.991682 -4.743547 -15.516949 -27.017391 36.422359 -76.733849 43.972275 30.354986 -9.627822 1.270380 8.831100 21.872681 28.375124 -3.710709 58.719452 -16.950874 -55.888535 1.237373 -0.284450 -15.302978 30.549807 -3.741228 -2.973105 -124.307762 34.927856 -15.133753 68.812057 13.705503 -0.774125 16.205086 4.132699 -21.547707 -140.236374 22.402058 -2.207336 79.807800 41.910477 -2.418868 16.531967 9.949800 1.786663 
19.995884 18.468296 11.359138 90.000664 0.013664 -132.006577 12.060064 21.175205 8.209985 11.181298 14.523510 15.725988 -1.505576 0.000000 0.000000 -1.075946 0.000000 0.000000 37.616734 7.085393 -3.637314 -15.516949 -27.017391 36.422359 -76.057884 43.948509 29.882536 -9.023219 1.320417 9.092456 21.773417 27.804075 -3.459025 58.440289 -16.899149 -55.775105 1.237373 -0.284450 -15.302978 30.370647 -3.645949 -2.945140 -124.088554 35.243050 -14.724705 68.812057 13.705503 -0.774126 15.937884 3.922062 -21.266714 -140.467728 22.938038 -1.733403 79.807785 41.910473 -2.418870 16.154171 9.515458 2.470980 
19.995884 18.468296 11.495308 90.000671 0.013666 -132.006592 12.060006 21.452921 8.209999 11.452963 15.134315 15.705936 -2.004972 0.000000 0.000000 -1.433317 0.000000 0.000000 37.131943 6.167564 -2.538623 -15.516947 -27.017387 36.422359 -75.382332 43.920715 29.410593 -8.418105 1.367713 9.354453 21.677448 27.232410 -3.209658 58.161289 -16.846878 -55.661957 1.237373 -0.284450 -15.302978 30.191544 -3.550581 -2.917474 -123.865677 35.557003 -14.312482 68.812050 13.705503 -0.774126 15.671738 3.710081 -20.986723 -140.695328 23.476137 -1.259597 79.807793 41.910473 -2.418870 15.781847 9.076379 3.152046 
19.995884 18.468296 11.631477 90.000671 0.013666 -132.006592 12.059953 21.730661 8.210014 11.725316 15.745453 15.688824 -2.505031 0.000000 0.000000 -1.790928 0.000000 0.000000 36.664780 5.238853 -1.447371 -15.516949 -27.017391 36.422359 -74.707321 43.888920 28.939272 -7.812529 1.412258 9.617041 21.584724 26.660194 -2.962540 57.882458 -16.794092 -55.549114 1.237373 -0.284450 -15.302978 30.012501 -3.455122 -2.890110 -123.639061 35.869694 -13.897049 68.812057 13.705503 -0.774125 15.406650 3.496772 -20.707739 -140.919128 24.016270 -0.785889 79.807800 41.910473 -2.418866 15.415032 8.632682 3.829837 
19.995884 18.468296 11.767647 90.000671 0.013668 -132.006592 12.059900 22.008423 8.210031 11.998411 16.356874 15.674684 -3.005732 0.000000 0.000000 -2.148771 0.000000 0.000000 36.215336 4.299927 -0.363437 -15.516949 -27.017391 36.422359 -74.032944 43.853119 28.468679 -7.206545 1.454038 9.880176 21.495182 26.087460 -2.717605 57.603794 -16.740765 -55.436546 1.237373 -0.284450 -15.302974 29.833509 -3.359576 -2.863046 -123.408722 36.181087 -13.478368 68.812057 13.705503 -0.774125 15.142627 3.282150 -20.429770 -141.139069 24.558342 -0.312246 79.807800 41.910473 -2.418864 15.053773 8.184495 4.504332 
19.995884 18.468296 11.903816 90.000671 0.013664 -132.006592 12.059845 22.286192 8.210046 12.272296 16.968519 15.663542 -3.507059 0.000000 0.000000 -2.506840 0.000000 0.000000 35.783710 3.351461 0.713322 -15.516951 -27.017391 36.422367 -73.359337 43.813332 27.998949 -6.600207 1.493043 10.143815 21.408764 25.514254 -2.474788 57.325306 -16.686918 -55.324291 1.237373 -0.284450 -15.302978 29.654589 -3.263944 -2.836284 -123.174622 36.491158 -13.056412 68.812057 13.705503 -0.774126 14.879675 3.066229 -20.152821 -141.355103 25.102278 0.161369 79.807800 41.910477 -2.418868 14.698106 7.731945 5.175514 
19.995884 18.468296 12.039986 90.000687 0.013664 -132.006592 12.059791 22.563972 8.210061 12.547028 17.580343 15.655433 -4.008993 0.000000 0.000000 -2.865129 0.000000 0.000000 35.369942 2.394138 1.783067 -15.516951 -27.017393 36.422363 -72.686607 43.769562 27.530165 -5.993566 1.529263 10.407906 21.325417 24.940628 -2.234025 57.046993 -16.632545 -55.212322 1.237373 -0.284450 -15.302979 29.475716 -3.168227 -2.809823 -122.936714 36.799858 -12.631138 68.812065 13.705504 -0.774124 14.617801 2.849025 -19.876896 -141.567169 25.647974 0.634986 79.807808 41.910477 -2.418862 14.348066 7.275160 5.843367 
19.995884 18.468296 12.176155 90.000671 0.013668 -132.006592 12.059737 22.841759 8.210075 12.822653 18.192272 15.650381 -4.511518 0.000000 0.000000 -3.223629 0.000000 0.000000 34.974098 1.428647 2.845978 -15.516951 -27.017391 36.422367 -72.014839 43.721802 27.062443 -5.386673 1.562690 10.672405 21.245096 24.366632 -1.995256 56.768867 -16.577652 -55.100677 1.237373 -0.284450 -15.302978 29.296906 -3.072427 -2.783662 -122.694939 37.107124 -12.202503 68.812057 13.705503 -0.774126 14.357010 2.630555 -19.602009 -141.775253 26.195339 1.108641 79.807800 41.910477 -2.418870 14.003682 6.814270 6.507881 
